<?xml version="1.0" encoding="UTF-8"?>
<svg id="Capa_2" data-name="Capa 2" xmlns="http://www.w3.org/2000/svg" viewBox="0 0 326.24 187.65">
  <defs>
    <style>
      .cls-1 {
        fill: #4d7133;
      }

      .cls-2 {
        fill: #fff;
      }

      .cls-3 {
        fill: #8aa64d;
      }
    </style>
  </defs>
  <g id="Capa_1-2" data-name="Capa 1">
    <g>
      <path class="cls-1" d="M150.7,158.47c-19.67,18.81-43.57,27.1-70.94,23.19-27.24-3.9-45.78-19.08-55.47-44.69-7.87-20.81-8.77-42.36-5.32-65.36,8.26,12.72,20.04,20.34,30.36,29.55,13.49,12.06,20.09,26.79,15.79,45.14-.81,3.47-2,6.92-5.58,10.75,1.29-14.68-6.92-23.79-14.85-33.07-6.37-7.45-10.78-15.62-8.14-26.39-5.59,1.72-5.92,5.83-5.89,9.8.04,6.45,3.04,11.95,6.31,17.29,4.76,7.78,10.39,15.04,14.05,23.49,2.24,5.18,3.61,10.36,1.47,15.9-1.31,3.39.75,3.91,3.26,3.65,2.94-.3,5.62-1.54,8.17-3.02,19.79-11.52,23.67-37.61,8.37-56.02-5.6-6.74-12.9-11.35-20.07-16.07-15.71-10.36-29.12-22.76-37.06-41.15-6.3,9.11-10.19,18.61-12.63,28.66-12.51,51.51,23.06,96.02,70.2,105.79,42.99,8.91,94.92-16.52,112.17-63.33h-8.71c-5.4,13.05-14.1,25.02-25.49,35.91Z"/>
      <path class="cls-1" d="M189.23,106.63C198.52,54.96,164.25,7.2,112.12.95,93.93-1.23,76.35.06,59.56,7.8c-5.85,2.7-11.18,6.25-15.43,11.2-.88,1.03-2.48,2.18-.91,3.69,1.48,1.42,2.65,0,3.77-.89,43.95-35.14,119.33-8.65,132.81,47.25,3.39,14.03,3.48,27.2.79,39.5h8.27c.13-.64.27-1.28.39-1.92Z"/>
      <path class="cls-3" d="M180.58,108.55c-1.05,4.8-2.51,9.47-4.39,14h8.71c1.65-4.47,2.97-9.15,3.95-14h-8.27Z"/>
      <path class="cls-2" d="M161.92,44.49v35.74h-13.4v-1.58c-3.81,1.31-7.75,2.1-11.96,2.1-9.86,0-19.05-4.07-26.02-11.43-6.83-7.23-10.64-16.82-10.64-26.94s3.81-19.84,10.64-27.07c6.96-7.36,16.16-11.3,26.02-11.3,7.23,0,14.19,2.1,20.1,6.17l-7.49,11.17c-3.68-2.63-8.01-3.94-12.48-3.94-12.75,0-23.26,11.17-23.26,24.83s10.51,24.83,23.26,24.83c4.21,0,8.28-1.31,11.96-3.68v-19.05l13.27.13ZM127.1,52.11v-13.4h13.93v13.4h-13.93Z"/>
      <path class="cls-2" d="M222.76,78.92h-15.64l-15.64-26.54h-.13v-13.53h7.88c4.99-.53,8.93-4.86,8.93-9.99,0-5.39-4.47-9.99-9.99-9.99h-13.66v60.18h-13.54V5.46h27.2c13.01,0,23.52,10.51,23.52,23.39,0,10.12-6.44,18.79-15.37,21.94l16.42,28.12Z"/>
      <path class="cls-2" d="M264.41,18.21c-12.22,0-22.34,9.07-23.92,20.89h-13.53c1.58-19.18,17.74-34.3,37.19-34.3s35.74,15.11,37.32,34.3h-13.67c-1.58-11.83-11.56-20.89-23.78-20.89h.39ZM286.75,50.8h14.19c-3.94,16.42-18.92,28.78-36.53,28.78s-32.59-12.35-36.53-28.78h14.19c3.41,8.93,12.09,15.37,22.34,15.37s18.92-6.44,22.34-15.37Z"/>
      <g>
        <path class="cls-2" d="M101.61,78.92h-14.32l-8.28-22.86-13.4-37.32-21.81,60.18h-14.19l.79-2.37L56.15,5.2h18.92l16.56,46.25,9.07,25.1.92,2.37Z"/>
        <polygon class="cls-2" points="128.72 156.34 115.05 156.34 88.51 82.75 102.83 82.75 124.51 142.94 128.72 156.34"/>
        <polygon class="cls-2" points="160.52 86.96 136.99 152.13 129.64 132.95 146.19 86.96 160.52 86.96"/>
      </g>
      <path class="cls-2" d="M177.1,92.4v16.69h35.48v13.4h-48.88v-43.49h48.88v13.4h-35.48ZM212.58,139.04v13.4h-48.88v-13.4h48.88Z"/>
      <path class="cls-2" d="M282.46,117.26c-9.2-5.13-10.91-12.48-10.64-17.74.26-6.18,3.94-11.96,9.72-15.64,5.26-3.55,12.09-5.25,19.05-4.86,8.8.39,17.08,3.94,21.94,9.59l-10.12,8.93c-2.5-3.02-7.23-4.86-12.48-5.12-4.2-.13-8.28.79-11.17,2.63-1.31.92-3.55,2.63-3.55,5.12-.13,3.02,2.23,5.26,7.88,7.23v13.93c-3.68-.92-7.49-2.23-10.91-4.07h.26ZM316.23,114.63c8.67,5.25,10.25,12.35,9.99,17.34-.26,6.17-3.81,11.82-9.72,15.64-4.86,3.15-11.04,4.86-17.48,4.86h-1.58c-9.59-.39-18.13-4.47-22.99-10.91l10.77-8.15c2.23,3.15,7.36,5.39,12.75,5.65,4.21.13,8.28-.79,11.3-2.63,1.18-.92,3.42-2.63,3.55-5.13.13-2.89-2.5-5.39-7.88-7.23v-13.93c4.6,1.05,8.41,2.63,11.43,4.47h-.13Z"/>
      <path class="cls-2" d="M268.28,78.99v13.4h-49.41v-13.4h49.41ZM237.27,152.44v-51.38h13.4v51.38h-13.4Z"/>
      <path class="cls-1" d="M180.58,108.55c-1.05,4.8-2.51,9.47-4.39,14h8.71c1.65-4.47,2.97-9.15,3.95-14h-8.27Z"/>
    </g>
  </g>
</svg>