<svg xmlns="http://www.w3.org/2000/svg" xmlns:xlink="http://www.w3.org/1999/xlink" width="1500" zoomAndPan="magnify" viewBox="0 0 1125 824.999997" height="1100" preserveAspectRatio="xMidYMid meet" version="1.0"><defs><clipPath id="1ccb94dc8e"><path d="M 938 404 L 1124.941406 404 L 1124.941406 656 L 938 656 Z M 938 404 " clip-rule="nonzero"/></clipPath></defs><path fill="#35722b" d="M 524.96875 676.292969 C 457.742188 740.582031 376.074219 768.914062 282.519531 755.535156 C 189.429688 742.210938 126.054688 690.347656 92.945312 602.800781 C 66.019531 531.671875 62.980469 458.046875 74.757812 379.429688 C 102.984375 422.902344 143.261719 448.929688 178.519531 480.410156 C 224.628906 521.605469 247.183594 571.972656 232.472656 634.660156 C 229.707031 646.519531 225.632812 658.328125 213.421875 671.40625 C 217.816406 621.253906 189.78125 590.101562 162.667969 558.375 C 140.902344 532.921875 125.839844 504.996094 134.847656 468.167969 C 115.769531 474.058594 114.601562 488.089844 114.710938 501.660156 C 114.875 523.695312 125.105469 542.472656 136.261719 560.738281 C 152.519531 587.332031 171.789062 612.109375 184.273438 641.039062 C 191.925781 658.734375 196.59375 676.453125 189.292969 695.371094 C 184.84375 706.929688 191.871094 708.722656 200.449219 707.851562 C 210.488281 706.820312 219.664062 702.589844 228.375 697.515625 C 296.011719 658.136719 309.28125 568.988281 256.980469 506.054688 C 237.847656 483.042969 212.90625 467.273438 188.398438 451.128906 C 134.714844 415.738281 88.871094 373.347656 61.730469 310.496094 C 40.210938 341.652344 26.882812 374.082031 18.550781 408.4375 C -24.222656 584.484375 97.367188 736.566406 258.476562 769.972656 C 405.386719 800.421875 582.914062 713.496094 641.835938 553.519531 L 612.0625 553.519531 C 593.609375 598.132812 563.863281 639.03125 524.96875 676.238281 Z M 524.96875 676.292969 " fill-opacity="1" fill-rule="nonzero"/><path fill="#35722b" d="M 656.65625 499.132812 C 688.410156 322.546875 571.269531 159.3125 393.09375 137.953125 C 330.941406 130.492188 270.824219 134.914062 213.449219 161.375 C 193.445312 170.601562 175.234375 182.730469 160.6875 199.664062 C 157.675781 203.195312 152.21875 207.128906 157.566406 212.285156 C 162.613281 217.144531 166.628906 212.285156 170.429688 209.246094 C 320.652344 89.160156 578.273438 179.691406 624.359375 370.71875 C 635.921875 418.671875 636.246094 463.664062 627.042969 505.730469 L 655.296875 505.730469 C 655.734375 503.53125 656.25 501.359375 656.628906 499.160156 Z M 656.65625 499.132812 " fill-opacity="1" fill-rule="nonzero"/><path fill="#7fa744" d="M 627.070312 505.703125 C 623.488281 522.09375 618.496094 538.050781 612.0625 553.546875 L 641.835938 553.546875 C 647.480469 538.265625 651.988281 522.285156 655.324219 505.703125 Z M 627.070312 505.703125 " fill-opacity="1" fill-rule="nonzero"/><path fill="#003f6a" d="M 563.320312 286.75 L 563.320312 408.898438 L 517.503906 408.898438 L 517.503906 403.5 C 504.476562 408.003906 491.015625 410.691406 476.632812 410.691406 C 442.949219 410.691406 411.519531 396.769531 387.71875 371.613281 C 364.378906 346.917969 351.351562 314.132812 351.351562 279.558594 C 351.351562 244.988281 364.378906 211.742188 387.71875 187.046875 C 411.519531 161.917969 442.949219 148.429688 476.632812 148.429688 C 501.328125 148.429688 525.132812 155.621094 545.351562 169.542969 L 519.757812 207.726562 C 507.191406 198.742188 492.375 194.265625 477.09375 194.265625 C 433.53125 194.265625 397.597656 232.421875 397.597656 279.125 C 397.597656 325.832031 433.53125 363.988281 477.09375 363.988281 C 491.476562 363.988281 505.402344 359.480469 517.96875 351.421875 L 517.96875 286.316406 Z M 444.308594 312.804688 L 444.308594 266.996094 L 491.910156 266.996094 L 491.910156 312.804688 Z M 444.308594 312.804688 " fill-opacity="1" fill-rule="nonzero"/><path fill="#003f6a" d="M 771.242188 404.421875 L 717.804688 404.421875 L 664.363281 313.699219 L 663.929688 313.699219 L 663.929688 267.457031 L 690.878906 267.457031 C 707.953125 265.664062 721.414062 250.847656 721.414062 233.316406 C 721.414062 214.917969 706.132812 199.175781 687.269531 199.175781 L 640.5625 199.175781 L 640.5625 404.828125 L 594.3125 404.828125 L 594.3125 153.367188 L 687.269531 153.367188 C 731.726562 153.367188 767.660156 189.300781 767.660156 233.289062 C 767.660156 267.863281 745.648438 297.5 715.117188 308.273438 L 771.242188 404.367188 Z M 771.242188 404.421875 " fill-opacity="1" fill-rule="nonzero"/><path fill="#003f6a" d="M 913.597656 196.953125 C 871.828125 196.953125 837.25 227.945312 831.847656 268.351562 L 785.601562 268.351562 C 791 202.785156 846.234375 151.144531 912.699219 151.144531 C 979.167969 151.144531 1034.859375 202.785156 1040.234375 268.351562 L 993.527344 268.351562 C 988.125 227.945312 954.007812 196.953125 912.238281 196.953125 Z M 989.941406 308.300781 L 1038.441406 308.300781 C 1024.980469 364.421875 973.765625 406.648438 913.597656 406.648438 C 853.425781 406.648438 802.210938 364.449219 788.75 308.300781 L 837.25 308.300781 C 848.921875 338.828125 878.558594 360.839844 913.597656 360.839844 C 948.636719 360.839844 978.273438 338.828125 989.941406 308.300781 Z M 989.941406 308.300781 " fill-opacity="1" fill-rule="nonzero"/><path fill="#450606" d="M 357.183594 404.421875 L 308.222656 404.421875 L 279.917969 326.292969 L 234.101562 198.769531 L 159.546875 404.449219 L 111.046875 404.449219 L 113.734375 396.363281 L 201.75 152.527344 L 266.425781 152.527344 L 323.015625 310.578125 L 354.011719 396.363281 L 357.160156 404.449219 Z M 357.183594 404.421875 " fill-opacity="1" fill-rule="nonzero"/><path fill="#450606" d="M 449.816406 668.992188 L 403.109375 668.992188 L 312.402344 417.53125 L 361.335938 417.53125 L 435.460938 623.210938 Z M 449.816406 668.992188 " fill-opacity="1" fill-rule="nonzero"/><path fill="#450606" d="M 558.515625 431.914062 L 478.125 654.636719 L 452.964844 589.070312 L 509.554688 431.914062 Z M 558.515625 431.914062 " fill-opacity="1" fill-rule="nonzero"/><path fill="#003f6a" d="M 615.210938 450.476562 L 615.210938 507.492188 L 736.476562 507.492188 L 736.476562 553.300781 L 569.398438 553.300781 L 569.398438 404.667969 L 736.476562 404.667969 L 736.476562 450.476562 Z M 736.449219 609.886719 L 736.449219 655.695312 L 569.371094 655.695312 L 569.371094 609.886719 Z M 736.449219 609.886719 " fill-opacity="1" fill-rule="nonzero"/><g clip-path="url(#1ccb94dc8e)"><path fill="#003f6a" d="M 975.285156 535.445312 C 943.859375 517.941406 938.023438 492.785156 938.917969 474.820312 C 939.8125 453.707031 952.378906 433.949219 972.164062 421.382812 C 990.132812 409.253906 1013.472656 403.417969 1037.277344 404.773438 C 1067.375 406.105469 1095.65625 418.234375 1112.292969 437.558594 L 1077.714844 468.089844 C 1069.195312 457.75 1053.019531 451.480469 1035.050781 450.585938 C 1020.695312 450.125 1006.742188 453.269531 996.890625 459.566406 C 992.386719 462.714844 984.757812 468.550781 984.757812 477.070312 C 984.324219 487.410156 992.386719 495.035156 1011.710938 501.765625 L 1011.710938 549.367188 C 999.144531 546.21875 986.117188 541.742188 974.445312 535.445312 L 975.339844 535.445312 Z M 1090.714844 526.460938 C 1120.355469 544.429688 1125.753906 568.664062 1124.859375 585.730469 C 1123.964844 606.84375 1111.832031 626.140625 1091.640625 639.167969 C 1075.027344 649.941406 1053.914062 655.773438 1031.902344 655.773438 L 1026.5 655.773438 C 993.714844 654.417969 964.511719 640.496094 947.902344 618.515625 L 984.730469 590.671875 C 992.359375 601.445312 1009.890625 609.070312 1028.292969 609.992188 C 1042.675781 610.425781 1056.601562 607.308594 1066.914062 601.011719 C 1070.957031 597.863281 1078.585938 592.027344 1079.046875 583.507812 C 1079.480469 573.628906 1070.523438 565.105469 1052.09375 558.8125 L 1052.09375 511.210938 C 1067.808594 514.820312 1080.835938 520.195312 1091.175781 526.488281 L 1090.742188 526.488281 Z M 1090.714844 526.460938 " fill-opacity="1" fill-rule="nonzero"/></g><path fill="#003f6a" d="M 926.839844 404.667969 L 926.839844 450.476562 L 757.972656 450.476562 L 757.972656 404.667969 Z M 820.855469 655.695312 L 820.855469 480.109375 L 866.671875 480.109375 L 866.671875 655.695312 Z M 820.855469 655.695312 " fill-opacity="1" fill-rule="nonzero"/><path fill="#35722b" d="M 627.070312 505.703125 C 623.488281 522.09375 618.496094 538.050781 612.0625 553.546875 L 641.835938 553.546875 C 647.480469 538.265625 651.988281 522.285156 655.324219 505.703125 Z M 627.070312 505.703125 " fill-opacity="1" fill-rule="nonzero"/></svg>